<svg version="1" xmlns="http://www.w3.org/2000/svg" width="682.667" height="682.667" viewBox="0 0 512.000000 512.000000"><path d="M317.9 31.6C304.2 43.1 295 51.8 295 53.3c0 .6-.8 1.9-1.7 3-1.4 1.5-1.4 1.9-.3 1.3.8-.4.4.1-1 1.1-1.3 1-3.4 2.8-4.7 4-1.2 1.3-2.7 2.3-3.3 2.3-.6 0-.8.4-.5 1 .3.5 0 1-.7 1-.7.1-2.4 1.4-3.8 3-1.3 1.7-2.9 3-3.6 3-.6 0-1.9 1.1-2.8 2.5-.9 1.4-2.1 2.5-2.8 2.5-.6 0-2.2 1.2-3.5 2.6-1.4 1.5-3.1 2.4-4.1 2.2-1-.3-2.3 0-2.9.6-2.7 2.5-4.3 3.6-5.3 3.6-.5 0-1 .5-1 1 0 .6-1.1 1.5-2.5 2s-2.8 1.7-3.1 2.5c-.4.8-1.3 1.5-2.1 1.5s-1.1.4-.8 1c.3.5.2 1-.3 1-1.9 0-19.2 15.7-19.2 17.4 0 .5-1.8 2.8-4 5.2-2.2 2.4-4 4.1-4 3.7 0-.3-.8.3-1.7 1.3-1.6 1.7-9 8.1-16.2 13.9-1.4 1.1-3.6 3-4.9 4.3-1.3 1.3-3 2.1-3.8 1.8-.8-.3-1.4-.1-1.4.5s-.4.7-1 .4c-.5-.3-1-.1-1 .4 0 .6-.6 1.1-1.4 1.1-.8 0-1.6.3-1.8.8-.1.4-2.3 2.3-4.8 4.2-2.4 1.9-5.2 4.2-6.1 5-.9.8-3.7 3.3-6.4 5.5-4.9 4.2-9.1 8.2-11.3 10.9-1 1.2-1.4 6-1.5 17.1-.1 8.5-.4 15.5-.7 15.5-.2 0-2.5-2.1-5.1-4.6l-4.6-4.5-6.4 5.3c-3.5 2.9-6.6 5.5-6.9 5.8-.3.3-12.6 10.9-27.5 23.6-22.3 19.1-27.3 23.9-28.9 27.5-1.1 2.4-4.3 9.5-7.2 15.7-3 6.2-6.1 13.4-6.9 16-.9 2.6-2 5.6-2.5 6.7-3.2 6.9-6.4 20.8-6.2 26.9.1 1-.2 1.6-.5 1.3-.9-1-5.2 4.9-7.8 10.7-6.2 14-4.5 18.3 13.2 34.6 6.8 6.3 13.1 11.5 13.9 11.5 1.6 0 22.8 18.2 36.2 31 5.2 4.9 12.1 11.5 15.3 14.5 3.3 3.1 5.9 6.3 5.9 7.1 0 1.5 27.5 26.9 31.4 29.1 2.3 1.3 8-1.5 23.1-11.6 13.1-8.7 15-9.6 15.7-7.4.7 1.9 6.7-5.1 6.3-7.3-.5-2.3 2.3-2.7 3.1-.4.3.8 2.2 1.7 4.1 2.1 2.7.5 4.8-.1 10.6-3 8.2-4.1 12.4-7.3 21.4-16.6 7.9-8 11.3-12.9 15.8-22.2 4.2-8.7 4.6-14.1 1.3-17-1.9-1.6-2-2.1-.8-2.8 2.7-1.7 5.5-1 8.9 2.1l3.3 3 2.4-2.2c1.3-1.2 2.4-3 2.4-4 0-1.9-3.8-6.1-10.8-12.1-2.4-2.1-4.2-4.2-4-4.9.2-.6 3.7 2 7.7 5.7 4 3.8 7.7 7 8.2 7.2 1.1.4 3.7-1.4 9.7-6.9 5.5-5 11.8-10.5 28.2-24.6l14-12c1.4-1.2 4.3-3.6 6.5-5.5l4-3.3-.1-10.3c0-5.6.1-10.2.3-10.2.1 0 1.1.8 2.1 1.7 1.1 1 4.1 3.9 6.9 6.4l4.9 4.6 2.5-2.8c2.2-2.4 2.6-2.6 4.9-1.4 2.7 1.3 3.4 1.3 9.5-.4 4.3-1.2 13.2-7.4 20.5-14.4 5.4-5.1 12.9-13.9 13-15 0-.4.9-1.7 2-2.9s2-2.8 2-3.5c0-.7.3-1.3.8-1.3 1.1 0 4.2-7.6 5.1-12.7.7-3.6.5-4.8-1.1-6.8-2.9-3.7-.1-3.2 3.9.6 3.1 3.1 3.3 3.2 5.8 1.5 3.8-2.5 3.2-5.7-2.2-11-2.7-2.5-5.1-4.6-5.5-4.6-2.6 0 .5-3.7 9.8-11.5 5.9-5 11.6-9.9 12.8-11 1.3-1.2 4.5-3.9 7.2-6 12.4-10 20.3-17.4 25.6-23.9 3.2-3.9 5.8-7.7 5.8-8.3 0-1.4-12-13.1-15-14.8-1.5-.8-1.6-1.4-.8-2.8.8-1.5.5-2.4-1.2-4.2-1.2-1.3-2.8-2.1-3.5-1.9-1.3.5-4.7-7.4-4.6-10.9 0-.9-.4-1.7-.8-1.7s-.8-.7-.9-1.5c-.1-.8-.3-2.2-.4-3-.1-.8-.5-1.5-.9-1.5-.5 0-.6-.6-.3-1.4.3-.7-.2-1.6-1.1-2-.9-.3-1.4-1-1.1-1.5.3-.4-1.4-2.6-3.7-4.7-4.8-4.3-24.9-22.8-31.7-29.1-2.5-2.3-5.6-5.1-7-6.3-1.4-1.2-5-4.5-8-7.4-11.6-11-63.3-58.1-64.5-58.8-.7-.5-5.6 2.9-12.6 8.8z"/></svg>