<svg width="89" height="45" viewBox="0 0 89 45" fill="none" xmlns="http://www.w3.org/2000/svg">
<path d="M10.0518 22.0086V28.131H5.02588V22.0086H1.3707V38H5.02588V31.6491H10.0518V38H13.707V22.0086H10.0518ZM21.8205 38.3198C25.1787 38.3198 27.8744 35.6927 27.8744 32.2888C27.8744 28.8849 25.1787 26.2577 21.8205 26.2577C18.4623 26.2577 15.7666 28.8849 15.7666 32.2888C15.7666 35.6927 18.4623 38.3198 21.8205 38.3198ZM21.8205 34.9845C20.3355 34.9845 19.1933 33.9108 19.1933 32.2888C19.1933 30.6668 20.3355 29.5931 21.8205 29.5931C23.3054 29.5931 24.4476 30.6668 24.4476 32.2888C24.4476 33.9108 23.3054 34.9845 21.8205 34.9845ZM33.2394 28.6107V26.5775H29.8126V38H33.2394V32.837C33.2394 30.5754 35.2497 30.0043 36.6661 30.2327V26.3491C35.2269 26.3491 33.6963 27.0801 33.2394 28.6107ZM39.9813 25.5724C41.1007 25.5724 42.0373 24.6357 42.0373 23.5163C42.0373 22.3969 41.1007 21.4603 39.9813 21.4603C38.8619 21.4603 37.9252 22.3969 37.9252 23.5163C37.9252 24.6357 38.8619 25.5724 39.9813 25.5724ZM38.2679 38H41.6947V26.5775H38.2679V38ZM47.3347 29.9129C47.3347 29.5017 47.7002 29.2732 48.2942 29.2732C49.048 29.2732 49.5049 29.6844 49.8248 30.2784L52.7489 28.7021C51.7894 27.0801 50.1446 26.2577 48.2942 26.2577C45.9183 26.2577 43.8166 27.5142 43.8166 30.0043C43.8166 33.9564 49.4364 33.2939 49.4364 34.5504C49.4364 35.0073 49.0252 35.2586 48.2028 35.2586C47.1976 35.2586 46.558 34.7789 46.261 33.9108L43.2911 35.6013C44.1821 37.4517 45.9183 38.3198 48.2028 38.3198C50.67 38.3198 52.9545 37.2004 52.9545 34.5733C52.9545 30.347 47.3347 31.2151 47.3347 29.9129ZM60.0366 38.3198C63.3948 38.3198 66.0905 35.6927 66.0905 32.2888C66.0905 28.8849 63.3948 26.2577 60.0366 26.2577C56.6784 26.2577 53.9827 28.8849 53.9827 32.2888C53.9827 35.6927 56.6784 38.3198 60.0366 38.3198ZM60.0366 34.9845C58.5517 34.9845 57.4095 33.9108 57.4095 32.2888C57.4095 30.6668 58.5517 29.5931 60.0366 29.5931C61.5216 29.5931 62.6638 30.6668 62.6638 32.2888C62.6638 33.9108 61.5216 34.9845 60.0366 34.9845ZM74.7223 26.2577C73.2146 26.2577 72.0723 26.806 71.4555 27.6513V26.5775H68.0288V38H71.4555V31.7633C71.4555 30.1413 72.3236 29.4103 73.5801 29.4103C74.6767 29.4103 75.5676 30.0728 75.5676 31.4892V38H78.9943V30.9866C78.9943 27.9025 77.0297 26.2577 74.7223 26.2577ZM88.0411 29.8672V26.5775H85.6881V23.3792L82.2613 24.4073V26.5775H80.4338V29.8672H82.2613V33.9108C82.2613 37.109 83.5635 38.4569 88.0411 38V34.8931C86.5333 34.9845 85.6881 34.8931 85.6881 33.9108V29.8672H88.0411Z" fill="#333333"/>
<path d="M4.33275 11.605L1.97775 5.5H0.567754L3.56775 13H5.09775L8.09775 5.5H6.68775L4.33275 11.605ZM8.42143 3.46L8.76643 4.66L11.0014 4V13H12.3814V2.5H11.1814L8.42143 3.46ZM15.3731 13.165C15.9281 13.165 16.3481 12.73 16.3481 12.19C16.3481 11.65 15.9281 11.215 15.3731 11.215C14.8331 11.215 14.3981 11.65 14.3981 12.19C14.3981 12.73 14.8331 13.165 15.3731 13.165ZM17.4156 3.46L17.7606 4.66L19.9956 4V13H21.3756V2.5H20.1756L17.4156 3.46Z" fill="#828282"/>
</svg>
