<svg width="16" height="16" viewBox="0 0 16 16" fill="none" xmlns="http://www.w3.org/2000/svg">
<path fill-rule="evenodd" clip-rule="evenodd" d="M8.99918 5C8.99918 5.55228 8.55147 6 7.99918 6C7.4469 6 6.99918 5.55228 6.99918 5C6.99918 4.44772 7.4469 4 7.99918 4C8.55147 4 8.99918 4.44772 8.99918 5ZM10.9992 5C10.9992 6.65685 9.65604 8 7.99918 8C6.34233 8 4.99918 6.65685 4.99918 5C4.99918 3.34315 6.34233 2 7.99918 2C9.65604 2 10.9992 3.34315 10.9992 5ZM7.99918 10.5C10.0495 10.5 11.8116 11.7341 12.5831 13.5H14.7093C13.8488 10.6085 11.1702 8.5 7.99918 8.5C4.82816 8.5 2.14961 10.6085 1.28906 13.5H3.41523C4.18678 11.7341 5.94887 10.5 7.99918 10.5Z" fill="#333333"/>
</svg>
